<svg xmlns="http://www.w3.org/2000/svg" viewBox="0 0 32 32"><g data-name="digg media social news"><path d="M8 8A1 1 0 0 0 7 9v3H4a1 1 0 0 0-1 1v7a1 1 0 0 0 1 1H8a1 1 0 0 0 0-2H5V14H7v2a1 1 0 0 0 2 0V9A1 1 0 0 0 8 8zM20 12H16a1 1 0 0 0-1 1v7a1 1 0 0 0 1 1h3v1H16a1 1 0 0 0 0 2h4a1 1 0 0 0 1-1V13A1 1 0 0 0 20 12zm-1 7H17V14h2zM28 12H24a1 1 0 0 0-1 1v7a1 1 0 0 0 1 1h3v1H24a1 1 0 0 0 0 2h4a1 1 0 0 0 1-1V13A1 1 0 0 0 28 12zm-1 7H25V14h2zM12 12a1 1 0 0 0-1 1v7a1 1 0 0 0 2 0V13A1 1 0 0 0 12 12z"/><circle cx="12" cy="10" r="1"/></g></svg>