<svg xmlns="http://www.w3.org/2000/svg" viewBox="0 0 32 32"><g data-name="drop box dropbox cloud storage"><path d="M28.53 17.4l-4.64-2.9 4.64-2.9a1 1 0 0 0 0-1.7l-6-3.75a1 1 0 0 0-1.06 0L16 9.57 10.53 6.15a1 1 0 0 0-1.06 0l-6 3.75a1 1 0 0 0 0 1.7l4.64 2.9L3.47 17.4a1 1 0 0 0 0 1.7l6 3.75a1 1 0 0 0 1.06 0L16 19.43l5.47 3.42a1 1 0 0 0 1.06 0l6-3.75a1 1 0 0 0 0-1.7zM16 17.07L11.89 14.5 16 11.93l4.11 2.57zm6-8.89l4.11 2.57L22 13.32l-4.11-2.57zm-12 0l4.11 2.57L10 13.32 5.89 10.75zm0 12.64L5.89 18.25 10 15.68l4.11 2.57zm12 0l-4.11-2.57L22 15.68l4.11 2.57zM19.49 23.74L16 25.83l-3.49-2.09a1 1 0 0 0-1 1.72l4 2.4a1 1 0 0 0 1 0l4-2.4a1 1 0 1 0-1-1.72z"/></g></svg>