<svg xmlns="http://www.w3.org/2000/svg" viewBox="0 0 32 32"><g data-name="slack collaboration sharing synergy"><path d="M12 16a3 3 0 0 0 0-6H6a3 3 0 0 0 0 6zM5 13a1 1 0 0 1 1-1h6a1 1 0 0 1 0 2H6A1 1 0 0 1 5 13zM26 16a1 1 0 0 0 0 2 1 1 0 0 1 0 2H20a1 1 0 0 1 0-2h2a1 1 0 0 0 0-2H20a3 3 0 0 0 0 6h6a3 3 0 0 0 0-6zM13 17a3 3 0 0 0-3 3v6a3 3 0 0 0 6 0V20A3 3 0 0 0 13 17zm1 9a1 1 0 0 1-2 0V20a1 1 0 0 1 2 0zM22 12V6a3 3 0 0 0-6 0v6a3 3 0 0 0 6 0zm-4 0V6a1 1 0 0 1 2 0v6a1 1 0 0 1-2 0zM28 12.5a2.5 2.5 0 0 0-5 0V15h2.5A2.5 2.5 0 0 0 28 12.5zm-3 0a.5.5 0 1 1 .5.5H25zM19.5 23H17v2.5A2.5 2.5 0 1 0 19.5 23zm0 3a.5.5 0 0 1-.5-.5V25h.5a.5.5 0 0 1 0 1zM4 19.5a2.5 2.5 0 0 0 5 0V17H6.5A2.5 2.5 0 0 0 4 19.5zm3 0a.5.5 0 1 1-.5-.5H7zM12.5 9H15V6.5A2.5 2.5 0 1 0 12.5 9zm0-3a.5.5 0 0 1 .5.5V7h-.5a.5.5 0 0 1 0-1z"/></g></svg>