<svg xmlns="http://www.w3.org/2000/svg" xmlns:svgjs="http://svgjs.com/svgjs" xmlns:xlink="http://www.w3.org/1999/xlink" width="288" height="288"><svg xmlns="http://www.w3.org/2000/svg" width="288" height="288" viewBox="0 0 32 32"><path fill="#b9b9b9" d="M21.18,2.92H10.82a2.9,2.9,0,0,0-2.9,2.9V26.18a2.9,2.9,0,0,0,2.9,2.9H21.18a2.9,2.9,0,0,0,2.9-2.9V5.82A2.9,2.9,0,0,0,21.18,2.92Zm.74,23.26a.74.74,0,0,1-.74.74H10.82a.74.74,0,0,1-.74-.74V5.82a.74.74,0,0,1,.74-.74H21.18a.74.74,0,0,1,.74.74Z" class="color000 svgShape"/><path fill="#b9b9b9" d="M17,23.92H15a1.08,1.08,0,0,0,0,2.16h2a1.08,1.08,0,0,0,0-2.16Z" class="color000 svgShape"/></svg></svg>